<svg width="60" height="60" viewBox="0 0 60 60" fill="none" xmlns="http://www.w3.org/2000/svg">
<path d="M10 15H50M40 15L39.3235 12.9702C38.6677 11.0031 38.3398 10.0196 37.7318 9.29245C37.1948 8.65032 36.5052 8.1533 35.7262 7.84695C34.844 7.5 33.8075 7.5 31.734 7.5H28.266C26.1925 7.5 25.156 7.5 24.2738 7.84695C23.4948 8.1533 22.8052 8.65032 22.2682 9.29245C21.6601 10.0196 21.3323 11.0031 20.6766 12.9702L20 15M45 15V40.5C45 44.7005 45 46.8005 44.1825 48.405C43.4635 49.8162 42.3162 50.9635 40.905 51.6825C39.3005 52.5 37.2005 52.5 33 52.5H27C22.7996 52.5 20.6994 52.5 19.0951 51.6825C17.6839 50.9635 16.5365 49.8162 15.8175 48.405C15 46.8005 15 44.7005 15 40.5V15M35 25V42.5M25 25V42.5" stroke="#121212" stroke-width="5" stroke-linecap="round" stroke-linejoin="round"/>
</svg>
